<?xml version="1.0" encoding="UTF-8"?>
<svg xmlns="http://www.w3.org/2000/svg" xmlns:xlink="http://www.w3.org/1999/xlink" width="854" height="480" viewBox="0 0 854 480">
<defs>
<g>
<g id="glyph-0-0">
<path d="M 0.808594 -5.820312 C 1.128906 -5.9375 1.429688 -6.027344 1.722656 -6.089844 C 2.015625 -6.152344 2.289062 -6.183594 2.542969 -6.183594 C 3.136719 -6.183594 3.601562 -6.058594 3.933594 -5.800781 C 4.269531 -5.542969 4.433594 -5.1875 4.433594 -4.730469 C 4.433594 -4.367188 4.320312 -4.058594 4.089844 -3.816406 C 3.859375 -3.570312 3.53125 -3.402344 3.109375 -3.316406 C 3.609375 -3.246094 3.996094 -3.066406 4.269531 -2.773438 C 4.546875 -2.480469 4.683594 -2.105469 4.683594 -1.640625 C 4.683594 -1.074219 4.492188 -0.636719 4.113281 -0.335938 C 3.730469 -0.0351562 3.183594 0.117188 2.464844 0.117188 C 2.148438 0.117188 1.839844 0.0859375 1.535156 0.015625 C 1.234375 -0.0507812 0.933594 -0.15625 0.632812 -0.292969 L 0.632812 -1.472656 L 1.089844 -1.472656 C 1.117188 -1.082031 1.25 -0.785156 1.484375 -0.585938 C 1.722656 -0.386719 2.054688 -0.285156 2.480469 -0.285156 C 2.898438 -0.285156 3.226562 -0.40625 3.464844 -0.644531 C 3.703125 -0.886719 3.824219 -1.214844 3.824219 -1.632812 C 3.824219 -2.109375 3.703125 -2.46875 3.453125 -2.714844 C 3.207031 -2.960938 2.84375 -3.085938 2.367188 -3.085938 L 1.980469 -3.085938 L 1.980469 -3.5 L 2.183594 -3.5 C 2.660156 -3.5 3.015625 -3.597656 3.253906 -3.792969 C 3.492188 -3.992188 3.609375 -4.289062 3.609375 -4.683594 C 3.609375 -5.039062 3.511719 -5.3125 3.316406 -5.5 C 3.121094 -5.6875 2.839844 -5.78125 2.472656 -5.78125 C 2.109375 -5.78125 1.824219 -5.695312 1.621094 -5.523438 C 1.417969 -5.347656 1.300781 -5.089844 1.265625 -4.75 L 0.808594 -4.75 Z "/>
</g>
<g id="glyph-0-1">
<path d="M 0.785156 -0.421875 C 0.785156 -0.574219 0.835938 -0.703125 0.941406 -0.808594 C 1.042969 -0.914062 1.171875 -0.96875 1.328125 -0.96875 C 1.476562 -0.96875 1.601562 -0.914062 1.707031 -0.808594 C 1.816406 -0.703125 1.867188 -0.574219 1.867188 -0.421875 C 1.867188 -0.273438 1.816406 -0.144531 1.707031 -0.0390625 C 1.601562 0.0664062 1.476562 0.117188 1.328125 0.117188 C 1.171875 0.117188 1.042969 0.0664062 0.941406 -0.0390625 C 0.835938 -0.144531 0.785156 -0.269531 0.785156 -0.421875 Z "/>
</g>
<g id="glyph-0-2">
</g>
<g id="glyph-0-3">
<path d="M 1.667969 -2.203125 L 3.898438 -2.203125 L 2.78125 -5.089844 L 1.667969 -2.203125 M -0.046875 0 L -0.046875 -0.429688 L 0.484375 -0.429688 L 2.648438 -6.074219 L 3.332031 -6.074219 L 5.5 -0.429688 L 6.097656 -0.429688 L 6.097656 0 L 3.890625 0 L 3.890625 -0.429688 L 4.566406 -0.429688 L 4.058594 -1.765625 L 1.5 -1.765625 L 0.992188 -0.429688 L 1.660156 -0.429688 L 1.660156 0 Z "/>
</g>
<g id="glyph-0-4">
<path d="M 1.707031 -0.429688 L 2.417969 -0.429688 L 2.417969 0 L 0.238281 0 L 0.238281 -0.429688 L 0.960938 -0.429688 L 0.960938 -5.898438 L 0.238281 -5.898438 L 0.238281 -6.332031 L 1.707031 -6.332031 Z "/>
</g>
<g id="glyph-0-5">
<path d="M 4.375 -3.890625 L 4.375 -0.09375 C 4.375 0.527344 4.203125 1.007812 3.863281 1.34375 C 3.519531 1.683594 3.03125 1.851562 2.402344 1.851562 C 2.117188 1.851562 1.84375 1.824219 1.582031 1.773438 C 1.324219 1.722656 1.074219 1.644531 0.835938 1.542969 L 0.835938 0.632812 L 1.226562 0.632812 C 1.273438 0.917969 1.390625 1.121094 1.570312 1.253906 C 1.753906 1.382812 2.011719 1.449219 2.351562 1.449219 C 2.792969 1.449219 3.113281 1.324219 3.316406 1.078125 C 3.523438 0.828125 3.625 0.4375 3.625 -0.09375 L 3.625 -0.675781 C 3.480469 -0.402344 3.292969 -0.203125 3.066406 -0.0742188 C 2.839844 0.0546875 2.558594 0.117188 2.226562 0.117188 C 1.695312 0.117188 1.257812 -0.09375 0.921875 -0.515625 C 0.582031 -0.9375 0.414062 -1.488281 0.414062 -2.164062 C 0.414062 -2.84375 0.582031 -3.390625 0.917969 -3.8125 C 1.257812 -4.234375 1.691406 -4.441406 2.226562 -4.441406 C 2.558594 -4.441406 2.839844 -4.378906 3.066406 -4.25 C 3.292969 -4.121094 3.480469 -3.921875 3.625 -3.648438 L 3.625 -4.324219 L 5.089844 -4.324219 L 5.089844 -3.890625 L 4.375 -3.890625 M 3.625 -2.375 C 3.625 -2.894531 3.527344 -3.289062 3.328125 -3.5625 C 3.128906 -3.839844 2.835938 -3.976562 2.457031 -3.976562 C 2.074219 -3.976562 1.78125 -3.824219 1.585938 -3.519531 C 1.386719 -3.214844 1.289062 -2.765625 1.289062 -2.164062 C 1.289062 -1.566406 1.386719 -1.117188 1.585938 -0.808594 C 1.78125 -0.503906 2.074219 -0.351562 2.457031 -0.351562 C 2.835938 -0.351562 3.128906 -0.484375 3.328125 -0.757812 C 3.527344 -1.03125 3.625 -1.429688 3.625 -1.949219 Z "/>
</g>
<g id="glyph-0-6">
<path d="M 4.515625 -2.082031 L 1.289062 -2.082031 L 1.289062 -2.050781 C 1.289062 -1.46875 1.398438 -1.027344 1.621094 -0.730469 C 1.839844 -0.433594 2.164062 -0.285156 2.59375 -0.285156 C 2.921875 -0.285156 3.1875 -0.371094 3.398438 -0.542969 C 3.609375 -0.714844 3.757812 -0.972656 3.839844 -1.308594 L 4.441406 -1.308594 C 4.324219 -0.835938 4.105469 -0.480469 3.78125 -0.238281 C 3.460938 0 3.039062 0.117188 2.515625 0.117188 C 1.882812 0.117188 1.375 -0.0898438 0.992188 -0.507812 C 0.605469 -0.921875 0.414062 -1.476562 0.414062 -2.164062 C 0.414062 -2.847656 0.605469 -3.398438 0.980469 -3.816406 C 1.359375 -4.234375 1.851562 -4.441406 2.464844 -4.441406 C 3.121094 -4.441406 3.621094 -4.242188 3.972656 -3.839844 C 4.320312 -3.4375 4.503906 -2.851562 4.515625 -2.082031 M 3.632812 -2.515625 C 3.617188 -3.019531 3.511719 -3.398438 3.3125 -3.65625 C 3.117188 -3.914062 2.835938 -4.039062 2.464844 -4.039062 C 2.121094 -4.039062 1.851562 -3.910156 1.652344 -3.652344 C 1.453125 -3.394531 1.332031 -3.015625 1.289062 -2.515625 Z "/>
</g>
<g id="glyph-0-7">
<path d="M 0.960938 -0.429688 L 0.960938 -5.898438 L 0.238281 -5.898438 L 0.238281 -6.332031 L 1.707031 -6.332031 L 1.707031 -3.648438 C 1.855469 -3.921875 2.042969 -4.121094 2.269531 -4.25 C 2.496094 -4.378906 2.773438 -4.441406 3.109375 -4.441406 C 3.640625 -4.441406 4.074219 -4.234375 4.410156 -3.8125 C 4.746094 -3.390625 4.914062 -2.84375 4.914062 -2.164062 C 4.914062 -1.488281 4.746094 -0.9375 4.410156 -0.515625 C 4.074219 -0.09375 3.640625 0.117188 3.109375 0.117188 C 2.773438 0.117188 2.496094 0.0546875 2.269531 -0.0742188 C 2.042969 -0.203125 1.855469 -0.402344 1.707031 -0.675781 L 1.707031 0 L 0.238281 0 L 0.238281 -0.429688 L 0.960938 -0.429688 M 1.707031 -1.949219 C 1.707031 -1.429688 1.808594 -1.03125 2.007812 -0.757812 C 2.207031 -0.484375 2.496094 -0.351562 2.875 -0.351562 C 3.257812 -0.351562 3.550781 -0.503906 3.746094 -0.808594 C 3.941406 -1.117188 4.039062 -1.566406 4.039062 -2.164062 C 4.039062 -2.765625 3.941406 -3.214844 3.746094 -3.519531 C 3.550781 -3.824219 3.257812 -3.976562 2.875 -3.976562 C 2.496094 -3.976562 2.207031 -3.839844 2.007812 -3.5625 C 1.808594 -3.289062 1.707031 -2.894531 1.707031 -2.375 Z "/>
</g>
<g id="glyph-0-8">
<path d="M 3.984375 -4.332031 L 3.984375 -3.25 L 3.550781 -3.25 C 3.539062 -3.464844 3.480469 -3.625 3.375 -3.730469 C 3.265625 -3.835938 3.113281 -3.890625 2.910156 -3.890625 C 2.539062 -3.890625 2.257812 -3.761719 2.0625 -3.507812 C 1.863281 -3.253906 1.765625 -2.886719 1.765625 -2.410156 L 1.765625 -0.429688 L 2.632812 -0.429688 L 2.632812 0 L 0.339844 0 L 0.339844 -0.429688 L 1.015625 -0.429688 L 1.015625 -3.898438 L 0.300781 -3.898438 L 0.300781 -4.324219 L 1.765625 -4.324219 L 1.765625 -3.554688 C 1.914062 -3.855469 2.101562 -4.082031 2.332031 -4.226562 C 2.5625 -4.371094 2.84375 -4.441406 3.171875 -4.441406 C 3.296875 -4.441406 3.425781 -4.433594 3.558594 -4.414062 C 3.691406 -4.394531 3.835938 -4.367188 3.984375 -4.332031 Z "/>
</g>
<g id="glyph-0-9">
<path d="M 3.316406 -1.359375 L 3.316406 -2.273438 L 2.351562 -2.273438 C 1.980469 -2.273438 1.703125 -2.195312 1.523438 -2.035156 C 1.339844 -1.875 1.25 -1.628906 1.25 -1.296875 C 1.25 -0.996094 1.339844 -0.757812 1.527344 -0.582031 C 1.710938 -0.40625 1.960938 -0.316406 2.273438 -0.316406 C 2.585938 -0.316406 2.839844 -0.414062 3.03125 -0.605469 C 3.21875 -0.800781 3.316406 -1.050781 3.316406 -1.359375 M 4.066406 -2.703125 L 4.066406 -0.429688 L 4.730469 -0.429688 L 4.730469 0 L 3.316406 0 L 3.316406 -0.46875 C 3.152344 -0.265625 2.960938 -0.121094 2.742188 -0.0234375 C 2.527344 0.0703125 2.273438 0.117188 1.980469 0.117188 C 1.5 0.117188 1.121094 -0.0078125 0.839844 -0.265625 C 0.554688 -0.519531 0.414062 -0.863281 0.414062 -1.296875 C 0.414062 -1.746094 0.578125 -2.09375 0.898438 -2.339844 C 1.222656 -2.585938 1.679688 -2.710938 2.265625 -2.710938 L 3.316406 -2.710938 L 3.316406 -3.007812 C 3.316406 -3.335938 3.214844 -3.589844 3.015625 -3.769531 C 2.816406 -3.949219 2.539062 -4.039062 2.175781 -4.039062 C 1.878906 -4.039062 1.640625 -3.972656 1.464844 -3.835938 C 1.289062 -3.703125 1.179688 -3.5 1.136719 -3.234375 L 0.75 -3.234375 L 0.75 -4.109375 C 1.007812 -4.222656 1.261719 -4.304688 1.507812 -4.359375 C 1.753906 -4.414062 1.992188 -4.441406 2.226562 -4.441406 C 2.824219 -4.441406 3.28125 -4.292969 3.59375 -3.996094 C 3.910156 -3.699219 4.066406 -3.269531 4.066406 -2.703125 Z "/>
</g>
<g id="glyph-0-10">
<path d="M 0.808594 -5.667969 C 0.808594 -5.792969 0.855469 -5.902344 0.945312 -5.992188 C 1.035156 -6.085938 1.144531 -6.132812 1.273438 -6.132812 C 1.398438 -6.132812 1.507812 -6.085938 1.597656 -5.992188 C 1.6875 -5.902344 1.734375 -5.792969 1.734375 -5.667969 C 1.734375 -5.539062 1.6875 -5.433594 1.597656 -5.34375 C 1.507812 -5.253906 1.402344 -5.207031 1.273438 -5.207031 C 1.144531 -5.207031 1.035156 -5.253906 0.945312 -5.34375 C 0.855469 -5.433594 0.808594 -5.539062 0.808594 -5.667969 M 1.765625 -0.429688 L 2.472656 -0.429688 L 2.472656 0 L 0.300781 0 L 0.300781 -0.429688 L 1.015625 -0.429688 L 1.015625 -3.890625 L 0.300781 -3.890625 L 0.300781 -4.324219 L 1.765625 -4.324219 Z "/>
</g>
<g id="glyph-0-11">
<path d="M 4.285156 -1.296875 C 4.179688 -0.835938 3.976562 -0.484375 3.675781 -0.242188 C 3.375 -0.00390625 2.984375 0.117188 2.507812 0.117188 C 1.878906 0.117188 1.371094 -0.0898438 0.988281 -0.507812 C 0.605469 -0.921875 0.414062 -1.476562 0.414062 -2.164062 C 0.414062 -2.855469 0.605469 -3.410156 0.988281 -3.824219 C 1.371094 -4.238281 1.878906 -4.441406 2.507812 -4.441406 C 2.78125 -4.441406 3.054688 -4.410156 3.324219 -4.347656 C 3.59375 -4.285156 3.867188 -4.1875 4.140625 -4.058594 L 4.140625 -2.949219 L 3.707031 -2.949219 C 3.648438 -3.328125 3.527344 -3.605469 3.335938 -3.78125 C 3.144531 -3.953125 2.871094 -4.039062 2.515625 -4.039062 C 2.109375 -4.039062 1.804688 -3.882812 1.597656 -3.570312 C 1.394531 -3.257812 1.289062 -2.789062 1.289062 -2.164062 C 1.289062 -1.539062 1.390625 -1.070312 1.597656 -0.757812 C 1.800781 -0.441406 2.109375 -0.285156 2.515625 -0.285156 C 2.835938 -0.285156 3.09375 -0.367188 3.289062 -0.535156 C 3.480469 -0.707031 3.613281 -0.957031 3.683594 -1.296875 Z "/>
</g>
<g id="glyph-0-12">
<path d="M 0.460938 0 L 0.460938 -0.429688 L 1.234375 -0.429688 L 1.234375 -5.640625 L 0.460938 -5.640625 L 0.460938 -6.074219 L 5.351562 -6.074219 L 5.351562 -4.722656 L 4.851562 -4.722656 L 4.851562 -5.574219 L 2.058594 -5.574219 L 2.058594 -3.539062 L 4.046875 -3.539062 L 4.046875 -4.300781 L 4.550781 -4.300781 L 4.550781 -2.28125 L 4.046875 -2.28125 L 4.046875 -3.042969 L 2.058594 -3.042969 L 2.058594 -0.5 L 4.914062 -0.5 L 4.914062 -1.351562 L 5.414062 -1.351562 L 5.414062 0 Z "/>
</g>
<g id="glyph-0-13">
<path d="M 2.425781 -2.640625 L 3.332031 -3.890625 L 2.75 -3.890625 L 2.75 -4.324219 L 4.414062 -4.324219 L 4.414062 -3.890625 L 3.839844 -3.890625 L 2.679688 -2.289062 L 4.03125 -0.429688 L 4.597656 -0.429688 L 4.597656 0 L 2.601562 0 L 2.601562 -0.429688 L 3.148438 -0.429688 L 2.210938 -1.726562 L 1.265625 -0.429688 L 1.828125 -0.429688 L 1.828125 0 L 0.183594 0 L 0.183594 -0.429688 L 0.757812 -0.429688 L 1.949219 -2.074219 L 0.632812 -3.890625 L 0.101562 -3.890625 L 0.101562 -4.324219 L 2.035156 -4.324219 L 2.035156 -3.890625 L 1.519531 -3.890625 Z "/>
</g>
<g id="glyph-0-14">
<path d="M 1.707031 -2.375 L 1.707031 -1.949219 C 1.707031 -1.429688 1.808594 -1.03125 2.007812 -0.757812 C 2.207031 -0.484375 2.496094 -0.351562 2.875 -0.351562 C 3.257812 -0.351562 3.550781 -0.503906 3.746094 -0.808594 C 3.941406 -1.117188 4.039062 -1.566406 4.039062 -2.164062 C 4.039062 -2.765625 3.941406 -3.214844 3.746094 -3.519531 C 3.550781 -3.824219 3.257812 -3.976562 2.875 -3.976562 C 2.496094 -3.976562 2.207031 -3.839844 2.007812 -3.5625 C 1.808594 -3.289062 1.707031 -2.894531 1.707031 -2.375 M 0.960938 -3.890625 L 0.238281 -3.890625 L 0.238281 -4.324219 L 1.707031 -4.324219 L 1.707031 -3.648438 C 1.855469 -3.921875 2.042969 -4.121094 2.269531 -4.25 C 2.496094 -4.378906 2.773438 -4.441406 3.109375 -4.441406 C 3.640625 -4.441406 4.074219 -4.234375 4.410156 -3.8125 C 4.746094 -3.390625 4.914062 -2.84375 4.914062 -2.164062 C 4.914062 -1.488281 4.746094 -0.9375 4.410156 -0.515625 C 4.074219 -0.09375 3.640625 0.117188 3.109375 0.117188 C 2.773438 0.117188 2.496094 0.0546875 2.269531 -0.0742188 C 2.042969 -0.203125 1.855469 -0.402344 1.707031 -0.675781 L 1.707031 1.296875 L 2.417969 1.296875 L 2.417969 1.734375 L 0.238281 1.734375 L 0.238281 1.296875 L 0.960938 1.296875 Z "/>
</g>
<g id="glyph-0-15">
<path d="M 0.339844 0 L 0.339844 -0.429688 L 1.015625 -0.429688 L 1.015625 -3.890625 L 0.300781 -3.890625 L 0.300781 -4.324219 L 1.765625 -4.324219 L 1.765625 -3.554688 C 1.902344 -3.847656 2.085938 -4.070312 2.304688 -4.21875 C 2.527344 -4.367188 2.78125 -4.441406 3.074219 -4.441406 C 3.554688 -4.441406 3.90625 -4.304688 4.128906 -4.03125 C 4.355469 -3.757812 4.46875 -3.332031 4.46875 -2.75 L 4.46875 -0.429688 L 5.136719 -0.429688 L 5.136719 0 L 3.066406 0 L 3.066406 -0.429688 L 3.714844 -0.429688 L 3.714844 -2.515625 C 3.714844 -3.042969 3.648438 -3.40625 3.519531 -3.601562 C 3.390625 -3.800781 3.160156 -3.898438 2.832031 -3.898438 C 2.484375 -3.898438 2.21875 -3.769531 2.039062 -3.519531 C 1.855469 -3.265625 1.765625 -2.894531 1.765625 -2.410156 L 1.765625 -0.429688 L 2.417969 -0.429688 L 2.417969 0 Z "/>
</g>
<g id="glyph-0-16">
<path d="M 4.375 -0.429688 L 5.089844 -0.429688 L 5.089844 0 L 3.625 0 L 3.625 -0.675781 C 3.480469 -0.402344 3.292969 -0.203125 3.066406 -0.0742188 C 2.839844 0.0546875 2.558594 0.117188 2.226562 0.117188 C 1.695312 0.117188 1.257812 -0.09375 0.921875 -0.515625 C 0.582031 -0.9375 0.414062 -1.488281 0.414062 -2.164062 C 0.414062 -2.84375 0.582031 -3.390625 0.917969 -3.8125 C 1.257812 -4.234375 1.691406 -4.441406 2.226562 -4.441406 C 2.558594 -4.441406 2.839844 -4.378906 3.066406 -4.25 C 3.292969 -4.121094 3.480469 -3.921875 3.625 -3.648438 L 3.625 -5.898438 L 2.917969 -5.898438 L 2.917969 -6.332031 L 4.375 -6.332031 L 4.375 -0.429688 M 3.625 -1.949219 L 3.625 -2.375 C 3.625 -2.894531 3.527344 -3.289062 3.328125 -3.5625 C 3.128906 -3.839844 2.835938 -3.976562 2.457031 -3.976562 C 2.074219 -3.976562 1.78125 -3.824219 1.585938 -3.519531 C 1.386719 -3.214844 1.289062 -2.765625 1.289062 -2.164062 C 1.289062 -1.566406 1.386719 -1.117188 1.585938 -0.808594 C 1.78125 -0.503906 2.074219 -0.351562 2.457031 -0.351562 C 2.835938 -0.351562 3.128906 -0.484375 3.328125 -0.757812 C 3.527344 -1.03125 3.625 -1.429688 3.625 -1.949219 Z "/>
</g>
<g id="glyph-0-17">
<path d="M 0.460938 0 L 0.460938 -0.429688 L 1.234375 -0.429688 L 1.234375 -5.640625 L 0.460938 -5.640625 L 0.460938 -6.074219 L 5.433594 -6.074219 L 5.433594 -4.722656 L 4.929688 -4.722656 L 4.929688 -5.574219 L 2.058594 -5.574219 L 2.058594 -3.539062 L 4.132812 -3.539062 L 4.132812 -4.300781 L 4.632812 -4.300781 L 4.632812 -2.28125 L 4.132812 -2.28125 L 4.132812 -3.042969 L 2.058594 -3.042969 L 2.058594 -0.429688 L 3.03125 -0.429688 L 3.03125 0 Z "/>
</g>
<g id="glyph-0-18">
<path d="M 2.507812 -0.285156 C 2.90625 -0.285156 3.210938 -0.445312 3.414062 -0.761719 C 3.621094 -1.078125 3.722656 -1.546875 3.722656 -2.164062 C 3.722656 -2.78125 3.621094 -3.25 3.414062 -3.566406 C 3.210938 -3.882812 2.90625 -4.039062 2.507812 -4.039062 C 2.105469 -4.039062 1.800781 -3.882812 1.597656 -3.566406 C 1.390625 -3.25 1.289062 -2.78125 1.289062 -2.164062 C 1.289062 -1.546875 1.394531 -1.078125 1.597656 -0.761719 C 1.804688 -0.445312 2.109375 -0.285156 2.507812 -0.285156 M 2.507812 0.117188 C 1.878906 0.117188 1.371094 -0.0898438 0.988281 -0.507812 C 0.605469 -0.921875 0.414062 -1.476562 0.414062 -2.164062 C 0.414062 -2.855469 0.605469 -3.40625 0.988281 -3.820312 C 1.367188 -4.234375 1.875 -4.441406 2.507812 -4.441406 C 3.136719 -4.441406 3.644531 -4.234375 4.027344 -3.820312 C 4.40625 -3.40625 4.597656 -2.855469 4.597656 -2.164062 C 4.597656 -1.476562 4.40625 -0.921875 4.027344 -0.507812 C 3.644531 -0.0898438 3.136719 0.117188 2.507812 0.117188 Z "/>
</g>
<g id="glyph-0-19">
<path d="M 4.316406 -3.484375 C 4.460938 -3.800781 4.644531 -4.039062 4.867188 -4.203125 C 5.09375 -4.363281 5.351562 -4.441406 5.652344 -4.441406 C 6.105469 -4.441406 6.441406 -4.304688 6.664062 -4.023438 C 6.886719 -3.742188 7 -3.316406 7 -2.75 L 7 -0.429688 L 7.675781 -0.429688 L 7.675781 0 L 5.597656 0 L 5.597656 -0.429688 L 6.25 -0.429688 L 6.25 -2.664062 C 6.25 -3.105469 6.183594 -3.421875 6.054688 -3.609375 C 5.925781 -3.796875 5.707031 -3.890625 5.40625 -3.890625 C 5.074219 -3.890625 4.820312 -3.765625 4.644531 -3.511719 C 4.46875 -3.257812 4.382812 -2.890625 4.382812 -2.410156 L 4.382812 -0.429688 L 5.035156 -0.429688 L 5.035156 0 L 2.984375 0 L 2.984375 -0.429688 L 3.632812 -0.429688 L 3.632812 -2.695312 C 3.632812 -3.125 3.570312 -3.433594 3.4375 -3.617188 C 3.308594 -3.796875 3.09375 -3.890625 2.792969 -3.890625 C 2.457031 -3.890625 2.203125 -3.765625 2.027344 -3.511719 C 1.851562 -3.257812 1.765625 -2.890625 1.765625 -2.410156 L 1.765625 -0.429688 L 2.417969 -0.429688 L 2.417969 0 L 0.339844 0 L 0.339844 -0.429688 L 1.015625 -0.429688 L 1.015625 -3.898438 L 0.300781 -3.898438 L 0.300781 -4.324219 L 1.765625 -4.324219 L 1.765625 -3.554688 C 1.902344 -3.84375 2.082031 -4.0625 2.292969 -4.214844 C 2.507812 -4.367188 2.753906 -4.441406 3.023438 -4.441406 C 3.359375 -4.441406 3.640625 -4.359375 3.867188 -4.191406 C 4.089844 -4.027344 4.242188 -3.789062 4.316406 -3.484375 Z "/>
</g>
</g>
</defs>
<g fill="rgb(100%, 52.54902%, 18.431373%)" fill-opacity="1">
<use xlink:href="#glyph-0-0" x="30" y="27.735352"/>
<use xlink:href="#glyph-0-1" x="35" y="27.735352"/>
<use xlink:href="#glyph-0-2" x="38" y="27.735352"/>
<use xlink:href="#glyph-0-3" x="41" y="27.735352"/>
<use xlink:href="#glyph-0-4" x="47" y="27.735352"/>
<use xlink:href="#glyph-0-5" x="50" y="27.735352"/>
<use xlink:href="#glyph-0-6" x="55" y="27.735352"/>
<use xlink:href="#glyph-0-7" x="60" y="27.735352"/>
<use xlink:href="#glyph-0-8" x="65" y="27.735352"/>
<use xlink:href="#glyph-0-9" x="69" y="27.735352"/>
<use xlink:href="#glyph-0-10" x="74" y="27.735352"/>
<use xlink:href="#glyph-0-11" x="77" y="27.735352"/>
<use xlink:href="#glyph-0-2" x="82" y="27.735352"/>
<use xlink:href="#glyph-0-12" x="85" y="27.735352"/>
<use xlink:href="#glyph-0-13" x="91" y="27.735352"/>
<use xlink:href="#glyph-0-14" x="96" y="27.735352"/>
<use xlink:href="#glyph-0-9" x="101" y="27.735352"/>
<use xlink:href="#glyph-0-15" x="106" y="27.735352"/>
<use xlink:href="#glyph-0-16" x="111" y="27.735352"/>
<use xlink:href="#glyph-0-6" x="116" y="27.735352"/>
<use xlink:href="#glyph-0-16" x="121" y="27.735352"/>
<use xlink:href="#glyph-0-2" x="126" y="27.735352"/>
<use xlink:href="#glyph-0-17" x="129" y="27.735352"/>
<use xlink:href="#glyph-0-18" x="134" y="27.735352"/>
<use xlink:href="#glyph-0-8" x="139" y="27.735352"/>
<use xlink:href="#glyph-0-19" x="143" y="27.735352"/>
</g>
</svg>
